<svg id="icon" xmlns="http://www.w3.org/2000/svg" viewBox="0 0 512 512"><defs><style>.cls-1{fill:#ffe2d4;}.cls-2{fill:#fff9f8;}.cls-3{fill:#efb9ab;}.cls-4{fill:#fff;}.cls-5{fill:#e6e6e6;}.cls-6{fill:#4d4d4d;}</style></defs><title>waist female</title><path class="cls-1" d="M459.22,369.45c-10.8-33.77-27.66-78-53.67-130,0,0-8.67-18-16.33-37.59a112.67,112.67,0,0,1-4.74-67.18,434.88,434.88,0,0,1,19-58.73,232.7,232.7,0,0,0-294.88,0,433.45,433.45,0,0,1,19,58.73,112.67,112.67,0,0,1-4.74,67.18c-7.66,19.59-16.33,37.59-16.33,37.59-26,52-42.87,96.23-53.67,130A232.74,232.74,0,0,0,237.37,488c-.47-33.59-7-57.68-7-57.68,10,5.86,25.66,5.86,25.66,5.86s15.62,0,25.66-5.86c0,0-6.56,24.09-7,57.68A232.74,232.74,0,0,0,459.22,369.45Z"/><path class="cls-2" d="M95.35,344.94l-2.76,9.71a11.75,11.75,0,0,0,4,12.39,387.27,387.27,0,0,1,30,26.73A10,10,0,0,0,143,390.33h0a10,10,0,0,0,0-7.4c-3.2-8.09-12-27.48-28.25-43.25A11.69,11.69,0,0,0,95.35,344.94Z"/><path class="cls-2" d="M393.8,350.21A32.7,32.7,0,0,0,383,361.58a11.92,11.92,0,0,0-.48,10h0a12.22,12.22,0,0,0,18.26,5.61l7.52-5.14A12.23,12.23,0,0,0,412,356l-.87-1.54A12.18,12.18,0,0,0,393.8,350.21Z"/><path class="cls-3" d="M191.47,275.21a248,248,0,0,1-42.59-67,3.76,3.76,0,0,0-7.21,1.83c2.06,18.88,7.35,44.53,20.77,65.13Z"/><path class="cls-3" d="M320.54,275.21a248.08,248.08,0,0,0,42.58-67,3.76,3.76,0,0,1,7.21,1.83c-2.05,18.88-7.35,44.53-20.77,65.13Z"/><path class="cls-3" d="M427.11,285.33h0q-3.35-7.6-7-15.52L256,299.1,91.88,269.81q-3.63,7.9-7,15.52h0s113.4,68.8,100.2,192.36A231.74,231.74,0,0,0,237.37,488c-.47-33.59-7-57.68-7-57.68,10,5.86,25.66,5.86,25.66,5.86s15.62,0,25.66-5.86c0,0-6.56,24.09-7,57.68a231.74,231.74,0,0,0,52.28-10.29C313.71,354.13,427.11,285.33,427.11,285.33Z"/><path class="cls-3" d="M281.79,35.89c24,16.33,39.17,40.87,47.29,57.44a3.71,3.71,0,0,0,7-1.91c-2.65-30.94-14.38-50.14-25.95-61.79a234.1,234.1,0,0,0-108.31,0c-11.58,11.65-23.31,30.85-26,61.79a3.71,3.71,0,0,0,7,1.91c8.12-16.57,23.26-41.11,47.29-57.44A45.81,45.81,0,0,1,281.79,35.89Z"/><path class="cls-4" d="M405.55,239.45s-.74-1.54-2-4.19c-22.59,13.67-52.39,23-79.29,29.27a302.43,302.43,0,0,1-136.55,0c-26.91-6.24-56.71-15.6-79.3-29.27-1.24,2.65-17.16,35.57-23.54,50.07,29.59,8.44,123,42.81,145.45,145,10,5.86,25.66,5.86,25.66,5.86s15.62,0,25.66-5.86c22.47-102.16,115.86-136.53,145.45-145Q417.54,263.58,405.55,239.45Z"/><rect class="cls-3" x="243.92" y="159.18" width="24.17" height="36.86" rx="12.08"/><path class="cls-5" d="M424.7,279.93C410.28,283,334.16,302,284.28,368.4A21.4,21.4,0,0,1,267.19,377H244.81a21.37,21.37,0,0,1-17.08-8.56c-49.88-66.35-126-85.38-140.41-88.47-.91,2-1.73,3.81-2.43,5.4,29.59,8.44,123,42.81,145.45,145,10,5.86,25.66,5.86,25.66,5.86s15.62,0,25.66-5.86c22.47-102.16,115.86-136.53,145.45-145C426.33,283.55,425.5,281.73,424.7,279.93Z"/><path class="cls-2" d="M204.92,96.93c-5.11,10.43-14.24,32.48-18.67,64.23a10,10,0,0,0,4.49,9.78h0a10,10,0,0,0,15.41-7.27l7.42-64.18a4.62,4.62,0,0,0-.74-3.07h0A4.57,4.57,0,0,0,204.92,96.93Z"/><path class="cls-2" d="M127.52,134.68a111.91,111.91,0,0,1,2.58,36.07l.37.14a18.62,18.62,0,0,0,25.34-17.78c-.14-7.87-1.11-16-2.64-26.64-2.73-18.92-19.2-56.32-23.53-65.91A231,231,0,0,0,108.56,76,433.45,433.45,0,0,1,127.52,134.68Z"/><path class="cls-6" d="M309.42,23.49a4.56,4.56,0,0,0-.64-.14,239.25,239.25,0,0,0-144.09,12.2,5.83,5.83,0,1,0,4.46,10.77c5.92-2.46,11.93-4.63,18-6.57a87,87,0,0,0-14.25,37.14,5.83,5.83,0,0,0,5,6.57,5.49,5.49,0,0,0,.8.06,5.83,5.83,0,0,0,5.77-5A74.83,74.83,0,0,1,207,34.41a228.41,228.41,0,0,1,98.11.06,74.86,74.86,0,0,1,22.47,44,5.84,5.84,0,0,0,5.77,5,5.49,5.49,0,0,0,.8-.06,5.83,5.83,0,0,0,5-6.57A87,87,0,0,0,324.9,39.81a226.8,226.8,0,0,1,71.53,38.1,435.14,435.14,0,0,0-17.62,55.41,117.92,117.92,0,0,0,5,70.66c4.32,11.05,9,21.68,12.27,28.89-13.53,7.54-30.4,14.26-50.4,20.08a149.6,149.6,0,0,0,8.95-13.69,5.83,5.83,0,1,0-10.1-5.82A138.26,138.26,0,0,1,326.41,258l-3.45.82a298,298,0,0,1-133.92,0L185.6,258a138.31,138.31,0,0,1-18.11-24.59,5.83,5.83,0,0,0-10.1,5.82,149.6,149.6,0,0,0,9,13.69c-20-5.82-36.87-12.54-50.4-20.08,3.27-7.2,7.94-17.83,12.27-28.89a117.92,117.92,0,0,0,5-70.66,468,468,0,0,0-17.65-55.49A229.9,229.9,0,0,1,136.32,63.2a5.83,5.83,0,1,0-6.16-9.9,241.86,241.86,0,0,0-25.23,18.07c-.08.07-.14.16-.22.23a5.1,5.1,0,0,0-.47.46l-.23.28a6.45,6.45,0,0,0-.54.82h0a5.8,5.8,0,0,0-.32,4.91c7.89,20.09,14.71,41.22,18.71,58a106.29,106.29,0,0,1-4.5,63.71C112,213.53,106,226.66,103.07,233c-.31.67-1.12,2.36-2.28,4.77-.14.28-.29.61-.44.91Q89.3,260.87,79.64,282.79a1.54,1.54,0,0,0-.08.19h0c-10.67,24.25-20,48.14-27.95,71.46a226.86,226.86,0,0,1,28.11-241.3,5.83,5.83,0,1,0-9-7.35A239.13,239.13,0,0,0,17.45,256c0,131.54,107,238.55,238.55,238.55a236.23,236.23,0,0,0,104.75-24.17,5.83,5.83,0,0,0-5.12-10.47,224.16,224.16,0,0,1-75,21.67c1.11-28.89,6.56-49.39,6.66-49.75,0-.05,0-.1,0-.15s0-.08.05-.13c20.68-94.08,104.26-129,136.48-139.15,11.21,25.83,20.88,51.23,28.9,75.92.05.17.13.32.19.47a228.37,228.37,0,0,1-14.59,22.27,5.83,5.83,0,0,0,9.35,6.95,236.58,236.58,0,0,0,46.86-142C494.55,142.82,415.32,47.81,309.42,23.49ZM59.12,368.68c0-.12.1-.23.14-.36,8-24.69,17.69-50.08,28.9-75.92,32.23,10.11,115.8,45.07,136.49,139.15,0,.05,0,.09,0,.13s0,.1,0,.15c.06.21,5.55,20.66,6.66,49.72C157.65,473.56,94.42,430.12,59.12,368.68ZM256,482.89q-6.51,0-12.93-.37a281.2,281.2,0,0,0-4.69-42.86A77.94,77.94,0,0,0,256,442a77.94,77.94,0,0,0,17.62-2.33,281.53,281.53,0,0,0-4.69,42.88Q262.5,482.89,256,482.89ZM419.11,281.67c-34.61,11.1-119.84,47.85-142.53,144.7-8.55,3.89-20.46,4-20.57,4s-12-.07-20.59-4C212.74,329.56,127.56,292.8,92.92,281.68c5.41-11.84,13.66-29.06,17.89-37.9l.17-.33c18.16,10,41.73,18.57,70.2,25.51l.3.07c1.63.39,3.27.79,4.93,1.17a309.69,309.69,0,0,0,139.18,0c1.66-.38,3.3-.78,4.93-1.17l.31-.07c28.46-6.94,52-15.5,70.19-25.51.39.78.77,1.55,1.15,2.33q1.51,3,3,6.09l1.38,2.84c1.07,2.23,2.14,4.45,3.2,6.68.34.71.67,1.42,1,2.12,1.28,2.7,2.53,5.39,3.78,8.08.11.26.23.51.35.77Q417,277,419.11,281.67Zm41.33,72.91A916.12,916.12,0,0,0,422,260a1,1,0,0,0-.07-.15q-2.42-5.13-4.9-10.27c-.35-.71-.69-1.43-1-2.14q-2.55-5.25-5.18-10.52c-.09-.18-8.66-18-16.15-37.19a106.29,106.29,0,0,1-4.5-63.71,417.58,417.58,0,0,1,15.73-50.22,226.93,226.93,0,0,1,54.56,268.77Z"/><path class="cls-6" d="M151.45,210.83a5.83,5.83,0,0,0-3.85,7.28s.12.38.36,1.08a5.83,5.83,0,0,0,5.51,3.93,5.74,5.74,0,0,0,1.9-.32,5.83,5.83,0,0,0,3.61-7.41c-.15-.44-.23-.69-.25-.73A5.81,5.81,0,0,0,151.45,210.83Z"/><path class="cls-6" d="M356.63,222.8a5.74,5.74,0,0,0,1.9.32,5.83,5.83,0,0,0,5.51-3.93c.24-.7.36-1.08.36-1.08a5.83,5.83,0,0,0-11.13-3.45s-.09.29-.25.73A5.83,5.83,0,0,0,356.63,222.8Z"/><path class="cls-6" d="M261.83,179.7V171a5.83,5.83,0,0,0-11.66,0v8.73a5.83,5.83,0,1,0,11.66,0Z"/></svg>